<svg width="33" height="32" viewBox="0 0 33 32" fill="none" xmlns="http://www.w3.org/2000/svg">
<path fill-rule="evenodd" clip-rule="evenodd" d="M6.56531 5.33157C8.43273 4.21065 10.6188 3.56615 12.9553 3.56615C19.8223 3.56615 25.3891 9.13294 25.3891 15.9999C25.3891 22.8669 19.8223 28.4337 12.9553 28.4337C10.6186 28.4337 8.43237 27.7891 6.56485 26.668C9.16836 29.0937 12.6609 30.5778 16.5 30.5778C24.5511 30.5778 31.0778 24.0511 31.0778 16C31.0778 7.94892 24.5511 1.42222 16.5 1.42222C12.6611 1.42222 9.16877 2.9061 6.56531 5.33157ZM0.5 16C0.5 7.16344 7.66344 0 16.5 0C25.3366 0 32.5 7.16344 32.5 16C32.5 24.8366 25.3366 32 16.5 32C7.66344 32 0.5 24.8366 0.5 16ZM16.5 8.53333C12.3763 8.53333 9.03333 11.8763 9.03333 16C9.03333 20.1237 12.3763 23.4667 16.5 23.4667C20.6237 23.4667 23.9667 20.1237 23.9667 16C23.9667 11.8763 20.6237 8.53333 16.5 8.53333ZM7.61111 16C7.61111 11.0908 11.5908 7.11111 16.5 7.11111C18.0118 7.11111 19.4355 7.48853 20.6819 8.15429C18.6941 6.19646 15.9658 4.98837 12.9553 4.98837C6.87379 4.98837 1.94375 9.91841 1.94375 15.9999C1.94375 22.0814 6.87379 27.0115 12.9553 27.0115C15.9656 27.0115 18.6938 25.8035 20.6816 23.8459C19.4352 24.5115 18.0117 24.8889 16.5 24.8889C11.5908 24.8889 7.61111 20.9092 7.61111 16Z" fill="#00938A"/>
</svg>
